# xmcd CD database file
# 
# Track frame offsets:
# 	150
# 	14742
# 	26339
# 	39855
# 	54716
# 	66377
# 	79681
# 	94408
# 	107531
# 	121850
# 	137808
# 	152513
# 	163430
# 	176787
# 	187853
# 	199603
# 	212085
# 	223131
# 	236031
# 	250767
# 
# Disc length: 3467 seconds
# 
# Submitted via: Nero 6, 0, 0, 28
# 
# Revision: 0
# Processed by: cddbd v1.4PL0 Copyright (c) Steve Scherf et al.
#
DISCID=1c0d8914
DTITLE=Various Artist - Country Roads Vol 3
DYEAR=1900
DGENRE=
TTITLE0=Bellamy Brothers - If I Said You Had A Beautiful Body (live)
TTITLE1=Sammi Smith - Help Me Make It Through The Night
TTITLE2=Mickey Gilley - True Love Ways
TTITLE3=Johnny Cash and Waylon Jennings - The Ain't No Good Chain Gang
TTITLE4=Patsy Cline - Lonely Street
TTITLE5=Conway Twitty - Danny Boy
TTITLE6=Eddie Rabbit - Drivin' My Life Away
TTITLE7=Crystal Gayle - Talkin' In Your Sleep
TTITLE8=Roy Clark - Tips Of My Fingers
TTITLE9=Tammy Wynette - The Wonders You Perform
TTITLE10=Ernest Tubbs and George Jones - Filipino Baby
TTITLE11=Ferlin Husky - Gone
TTITLE12=Dottie West - Blue Fiddle Waltz
TTITLE13=Guy Mitchell - Singing The Blues
TTITLE14=Don Gibson - Oh Lonesome Me
TTITLE15=Barbara Mandrell - Midnight Oil
TTITLE16=Roger Miller - Husbands And Wives
TTITLE17=Jerry Wallace - In The Misty Moonlight
TTITLE18=Jeannie C. Riley - Harper Valley PTA
TTITLE19=The Everly Brother - Wake Up Little Susie
EXTD=
EXTT0=
EXTT1=
EXTT2=
EXTT3=
EXTT4=
EXTT5=
EXTT6=
EXTT7=
EXTT8=
EXTT9=
EXTT10=
EXTT11=
EXTT12=
EXTT13=
EXTT14=
EXTT15=
EXTT16=
EXTT17=
EXTT18=
EXTT19=
PLAYORDER=
